<svg width="860" height="480" viewBox="0 0 860 480" xmlns="http://www.w3.org/2000/svg" font-family="'Segoe UI',system-ui,sans-serif">
  <rect width="860" height="480" fill="#f4efe6"/>

  <!-- Header -->
  <text x="430" y="32" text-anchor="middle" font-size="17" font-weight="800" fill="#1a1a1a" letter-spacing="2.5">🧪 EXPERIMENTS</text>

  <!-- Row 1 -->
  <!-- Card 1 - cyan -->
  <rect x="4" y="54" width="264" height="120" rx="10" fill="#1a1a1a" opacity="0.12"/>
  <rect x="0" y="50" width="264" height="120" rx="10" fill="#6FDFFF" stroke="#1a1a1a" stroke-width="2.5"/>
  <circle cx="238" cy="42" r="9" fill="#FFD93D" stroke="#1a1a1a" stroke-width="2"/>
  <text x="132" y="120" text-anchor="middle" font-size="46" font-weight="800" fill="#1a1a1a">1</text>

  <!-- Card 2 - yellow -->
  <rect x="302" y="54" width="256" height="120" rx="10" fill="#1a1a1a" opacity="0.12"/>
  <rect x="298" y="50" width="256" height="120" rx="10" fill="#FFD93D" stroke="#1a1a1a" stroke-width="2.5"/>
  <circle cx="534" cy="42" r="9" fill="#FFD93D" stroke="#1a1a1a" stroke-width="2"/>
  <text x="426" y="120" text-anchor="middle" font-size="46" font-weight="800" fill="#1a1a1a">2</text>

  <!-- Card 3 - pink -->
  <rect x="600" y="54" width="260" height="120" rx="10" fill="#1a1a1a" opacity="0.12"/>
  <rect x="596" y="50" width="260" height="120" rx="10" fill="#FF85A1" stroke="#1a1a1a" stroke-width="2.5"/>
  <circle cx="836" cy="42" r="9" fill="#FFD93D" stroke="#1a1a1a" stroke-width="2"/>
  <text x="726" y="120" text-anchor="middle" font-size="46" font-weight="800" fill="#1a1a1a">3</text>

  <!-- Row 2 -->
  <!-- Card 4 - cyan -->
  <rect x="4" y="194" width="264" height="120" rx="10" fill="#1a1a1a" opacity="0.12"/>
  <rect x="0" y="190" width="264" height="120" rx="10" fill="#6FDFFF" stroke="#1a1a1a" stroke-width="2.5"/>
  <circle cx="238" cy="182" r="9" fill="#FFD93D" stroke="#1a1a1a" stroke-width="2"/>
  <text x="132" y="260" text-anchor="middle" font-size="46" font-weight="800" fill="#1a1a1a">4</text>

  <!-- Card 5 - yellow -->
  <rect x="302" y="194" width="256" height="120" rx="10" fill="#1a1a1a" opacity="0.12"/>
  <rect x="298" y="190" width="256" height="120" rx="10" fill="#FFD93D" stroke="#1a1a1a" stroke-width="2.5"/>
  <circle cx="534" cy="182" r="9" fill="#FFD93D" stroke="#1a1a1a" stroke-width="2"/>
  <text x="426" y="260" text-anchor="middle" font-size="46" font-weight="800" fill="#1a1a1a">5</text>

  <!-- Card 6 - pink -->
  <rect x="600" y="194" width="260" height="120" rx="10" fill="#1a1a1a" opacity="0.12"/>
  <rect x="596" y="190" width="260" height="120" rx="10" fill="#FF85A1" stroke="#1a1a1a" stroke-width="2.5"/>
  <circle cx="836" cy="182" r="9" fill="#FFD93D" stroke="#1a1a1a" stroke-width="2"/>
  <text x="726" y="260" text-anchor="middle" font-size="46" font-weight="800" fill="#1a1a1a">6</text>

  <!-- Row 3 -->
  <!-- Card 7 - cyan -->
  <rect x="4" y="334" width="264" height="120" rx="10" fill="#1a1a1a" opacity="0.12"/>
  <rect x="0" y="330" width="264" height="120" rx="10" fill="#6FDFFF" stroke="#1a1a1a" stroke-width="2.5"/>
  <circle cx="238" cy="322" r="9" fill="#FFD93D" stroke="#1a1a1a" stroke-width="2"/>
  <text x="132" y="400" text-anchor="middle" font-size="46" font-weight="800" fill="#1a1a1a">7</text>

  <!-- Card 8 - yellow -->
  <rect x="302" y="334" width="256" height="120" rx="10" fill="#1a1a1a" opacity="0.12"/>
  <rect x="298" y="330" width="256" height="120" rx="10" fill="#FFD93D" stroke="#1a1a1a" stroke-width="2.5"/>
  <circle cx="534" cy="322" r="9" fill="#FFD93D" stroke="#1a1a1a" stroke-width="2"/>
  <text x="426" y="400" text-anchor="middle" font-size="46" font-weight="800" fill="#1a1a1a">8</text>

  <!-- Card 9 - pink -->
  <rect x="600" y="334" width="260" height="120" rx="10" fill="#1a1a1a" opacity="0.12"/>
  <rect x="596" y="330" width="260" height="120" rx="10" fill="#FF85A1" stroke="#1a1a1a" stroke-width="2.5"/>
  <circle cx="836" cy="322" r="9" fill="#FFD93D" stroke="#1a1a1a" stroke-width="2"/>
  <text x="726" y="400" text-anchor="middle" font-size="46" font-weight="800" fill="#1a1a1a">9</text>
</svg>
