<svg width="280" height="340" viewBox="0 0 280 340" xmlns="http://www.w3.org/2000/svg" font-family="'Segoe UI',system-ui,sans-serif">
  <defs>
    <linearGradient id="av" x1="0" y1="0" x2="1" y2="1">
      <stop offset="0%" stop-color="#FFD93D"/>
      <stop offset="55%" stop-color="#FFB347"/>
      <stop offset="100%" stop-color="#FF8C42"/>
    </linearGradient>
  </defs>
  <rect x="34" y="24" width="46" height="46" rx="9" fill="#1a1a1a" opacity="0.16"/>
  <rect x="30" y="20" width="46" height="46" rx="9" fill="#ffffff" stroke="#1a1a1a" stroke-width="2.5"/>
  <text x="53" y="43" text-anchor="middle" dominant-baseline="middle" font-size="13" font-weight="800" fill="#1a1a1a">&lt;/&gt;</text>
  <rect x="210" y="54" width="46" height="44" rx="9" fill="#1a1a1a" opacity="0.16"/>
  <rect x="206" y="50" width="46" height="44" rx="9" fill="#1a1a1a" stroke="#1a1a1a" stroke-width="2.5"/>
  <text x="229" y="72" text-anchor="middle" dominant-baseline="middle" font-size="12" font-weight="700" fill="#FFD93D">&gt;_</text>
  <rect x="68" y="38" width="194" height="248" rx="14" fill="#1a1a1a" opacity="0.18"/>
  <rect x="64" y="34" width="194" height="248" rx="14" fill="#ffffff" stroke="#1a1a1a" stroke-width="3"/>
  <rect x="73" y="43" width="176" height="230" rx="9" fill="url(#av)"/>
  <text x="161" y="185" text-anchor="middle" dominant-baseline="middle" font-size="90">&#x1F9D1;&#x200D;&#x1F4BB;</text>
  <rect x="148" y="272" width="146" height="24" rx="12" fill="#1a1a1a" opacity="0.2"/>
  <rect x="144" y="268" width="146" height="24" rx="12" fill="#1a1a1a"/>
  <text x="217" y="280" text-anchor="middle" dominant-baseline="middle" font-size="10.5" font-weight="700" fill="#ffffff" letter-spacing="0.5">&#x1F977; Full-Stack Ninja</text>
  <rect x="24" y="224" width="46" height="46" rx="9" fill="#1a1a1a" opacity="0.16"/>
  <rect x="20" y="220" width="46" height="46" rx="9" fill="#6C8EFF" stroke="#1a1a1a" stroke-width="2.5"/>
  <text x="43" y="243" text-anchor="middle" dominant-baseline="middle" font-size="22">&#x1F4BE;</text>
</svg>