<svg width="860" height="400" viewBox="0 0 860 400" xmlns="http://www.w3.org/2000/svg" font-family="'Segoe UI',system-ui,sans-serif">
  <rect width="860" height="400" fill="#f4efe6"/>

  <!-- Label -->
  <rect x="4" y="4" width="80" height="32" rx="8" fill="#1a1a1a" opacity="0.15"/>
  <rect x="0" y="0" width="80" height="32" rx="8" fill="#FFD93D" stroke="#1a1a1a" stroke-width="2.5"/>
  <text x="40" y="21" text-anchor="middle" font-size="13" font-weight="800" fill="#1a1a1a" letter-spacing="1.5">SKILLS</text>

  <!-- Outer card shadow -->
  <rect x="4" y="48" width="856" height="348" rx="12" fill="#1a1a1a" opacity="0.12"/>
  <!-- Outer card -->
  <rect x="0" y="44" width="856" height="348" rx="12" fill="#ffffff" stroke="#1a1a1a" stroke-width="2.5"/>

  <!-- ── FRONTEND column ── -->
  <rect x="16" y="60" width="262" height="316" rx="10" fill="#f9f5ed" stroke="#FF6B35" stroke-width="2"/>
  <!-- header -->
  <text x="36" y="89" font-size="12" font-weight="800" fill="#FF6B35" letter-spacing="0.8">🎨 FRONTEND</text>
  <line x1="16" y1="98" x2="278" y2="98" stroke="#FF6B35" stroke-width="2"/>
  <!-- items -->
  <circle cx="30" cy="118" r="4" fill="#1a1a1a"/>
  <text x="42" y="123" font-size="12.5" font-weight="500" fill="#333333">React.js</text>
  <line x1="16" y1="133" x2="278" y2="133" stroke="#e8e0d0" stroke-width="1" stroke-dasharray="3,3"/>

  <circle cx="30" cy="153" r="4" fill="#1a1a1a"/>
  <text x="42" y="158" font-size="12.5" font-weight="500" fill="#333333">Redux</text>
  <line x1="16" y1="168" x2="278" y2="168" stroke="#e8e0d0" stroke-width="1" stroke-dasharray="3,3"/>

  <circle cx="30" cy="188" r="4" fill="#1a1a1a"/>
  <text x="42" y="193" font-size="12.5" font-weight="500" fill="#333333">Next.js</text>
  <line x1="16" y1="203" x2="278" y2="203" stroke="#e8e0d0" stroke-width="1" stroke-dasharray="3,3"/>

  <circle cx="30" cy="223" r="4" fill="#1a1a1a"/>
  <text x="42" y="228" font-size="12.5" font-weight="500" fill="#333333">Ant Design</text>
  <line x1="16" y1="238" x2="278" y2="238" stroke="#e8e0d0" stroke-width="1" stroke-dasharray="3,3"/>

  <circle cx="30" cy="258" r="4" fill="#1a1a1a"/>
  <text x="42" y="263" font-size="12.5" font-weight="500" fill="#333333">Bootstrap</text>
  <line x1="16" y1="273" x2="278" y2="273" stroke="#e8e0d0" stroke-width="1" stroke-dasharray="3,3"/>

  <circle cx="30" cy="293" r="4" fill="#1a1a1a"/>
  <text x="42" y="298" font-size="12.5" font-weight="500" fill="#333333">Material UI</text>
  <line x1="16" y1="308" x2="278" y2="308" stroke="#e8e0d0" stroke-width="1" stroke-dasharray="3,3"/>

  <circle cx="30" cy="328" r="4" fill="#1a1a1a"/>
  <text x="42" y="333" font-size="12.5" font-weight="500" fill="#333333">React Native</text>
  <line x1="16" y1="343" x2="278" y2="343" stroke="#e8e0d0" stroke-width="1" stroke-dasharray="3,3"/>

  <circle cx="30" cy="360" r="4" fill="#1a1a1a"/>
  <text x="42" y="365" font-size="12.5" font-weight="500" fill="#333333">Storybook</text>

  <!-- ── LANGUAGES column ── -->
  <rect x="297" y="60" width="262" height="316" rx="10" fill="#f9f5ed" stroke="#6C8EFF" stroke-width="2"/>
  <!-- header -->
  <text x="317" y="89" font-size="12" font-weight="800" fill="#6C8EFF" letter-spacing="0.8">&lt;/&gt; LANGUAGES</text>
  <line x1="297" y1="98" x2="559" y2="98" stroke="#6C8EFF" stroke-width="2"/>
  <!-- items -->
  <circle cx="311" cy="118" r="4" fill="#1a1a1a"/>
  <text x="323" y="123" font-size="12.5" font-weight="500" fill="#333333">JavaScript</text>
  <line x1="297" y1="133" x2="559" y2="133" stroke="#e8e0d0" stroke-width="1" stroke-dasharray="3,3"/>

  <circle cx="311" cy="153" r="4" fill="#1a1a1a"/>
  <text x="323" y="158" font-size="12.5" font-weight="500" fill="#333333">TypeScript</text>
  <line x1="297" y1="168" x2="559" y2="168" stroke="#e8e0d0" stroke-width="1" stroke-dasharray="3,3"/>

  <circle cx="311" cy="188" r="4" fill="#1a1a1a"/>
  <text x="323" y="193" font-size="12.5" font-weight="500" fill="#333333">Python</text>
  <line x1="297" y1="203" x2="559" y2="203" stroke="#e8e0d0" stroke-width="1" stroke-dasharray="3,3"/>

  <circle cx="311" cy="223" r="4" fill="#1a1a1a"/>
  <text x="323" y="228" font-size="12.5" font-weight="500" fill="#333333">Java</text>
  <line x1="297" y1="238" x2="559" y2="238" stroke="#e8e0d0" stroke-width="1" stroke-dasharray="3,3"/>

  <circle cx="311" cy="258" r="4" fill="#1a1a1a"/>
  <text x="323" y="263" font-size="12.5" font-weight="500" fill="#333333">Node.js</text>
  <line x1="297" y1="273" x2="559" y2="273" stroke="#e8e0d0" stroke-width="1" stroke-dasharray="3,3"/>

  <circle cx="311" cy="293" r="4" fill="#1a1a1a"/>
  <text x="323" y="298" font-size="12.5" font-weight="500" fill="#333333">Go</text>
  <line x1="297" y1="308" x2="559" y2="308" stroke="#e8e0d0" stroke-width="1" stroke-dasharray="3,3"/>

  <circle cx="311" cy="328" r="4" fill="#1a1a1a"/>
  <text x="323" y="333" font-size="12.5" font-weight="500" fill="#333333">HTML5</text>
  <line x1="297" y1="343" x2="559" y2="343" stroke="#e8e0d0" stroke-width="1" stroke-dasharray="3,3"/>

  <circle cx="311" cy="360" r="4" fill="#1a1a1a"/>
  <text x="323" y="365" font-size="12.5" font-weight="500" fill="#333333">CSS3</text>

  <!-- ── BACKEND column ── -->
  <rect x="578" y="60" width="262" height="316" rx="10" fill="#f9f5ed" stroke="#E91E8C" stroke-width="2"/>
  <!-- header -->
  <text x="598" y="89" font-size="12" font-weight="800" fill="#E91E8C" letter-spacing="0.8">⚙️ BACKEND</text>
  <line x1="578" y1="98" x2="840" y2="98" stroke="#E91E8C" stroke-width="2"/>
  <!-- items -->
  <circle cx="592" cy="118" r="4" fill="#1a1a1a"/>
  <text x="604" y="123" font-size="12.5" font-weight="500" fill="#333333">Node.js</text>
  <line x1="578" y1="133" x2="840" y2="133" stroke="#e8e0d0" stroke-width="1" stroke-dasharray="3,3"/>

  <circle cx="592" cy="153" r="4" fill="#1a1a1a"/>
  <text x="604" y="158" font-size="12.5" font-weight="500" fill="#333333">Express.js</text>
  <line x1="578" y1="168" x2="840" y2="168" stroke="#e8e0d0" stroke-width="1" stroke-dasharray="3,3"/>

  <circle cx="592" cy="188" r="4" fill="#1a1a1a"/>
  <text x="604" y="193" font-size="12.5" font-weight="500" fill="#333333">NestJS</text>
  <line x1="578" y1="203" x2="840" y2="203" stroke="#e8e0d0" stroke-width="1" stroke-dasharray="3,3"/>

  <circle cx="592" cy="223" r="4" fill="#1a1a1a"/>
  <text x="604" y="228" font-size="12.5" font-weight="500" fill="#333333">GraphQL</text>
  <line x1="578" y1="238" x2="840" y2="238" stroke="#e8e0d0" stroke-width="1" stroke-dasharray="3,3"/>

  <circle cx="592" cy="258" r="4" fill="#1a1a1a"/>
  <text x="604" y="263" font-size="12.5" font-weight="500" fill="#333333">Google Cloud</text>
  <line x1="578" y1="273" x2="840" y2="273" stroke="#e8e0d0" stroke-width="1" stroke-dasharray="3,3"/>

  <circle cx="592" cy="293" r="4" fill="#1a1a1a"/>
  <text x="604" y="298" font-size="12.5" font-weight="500" fill="#333333">Docker</text>
  <line x1="578" y1="308" x2="840" y2="308" stroke="#e8e0d0" stroke-width="1" stroke-dasharray="3,3"/>

  <circle cx="592" cy="328" r="4" fill="#1a1a1a"/>
  <text x="604" y="333" font-size="12.5" font-weight="500" fill="#333333">AWS</text>
  <line x1="578" y1="343" x2="840" y2="343" stroke="#e8e0d0" stroke-width="1" stroke-dasharray="3,3"/>

  <circle cx="592" cy="360" r="4" fill="#1a1a1a"/>
  <text x="604" y="365" font-size="12.5" font-weight="500" fill="#333333">MySQL · Redis</text>
</svg>
